<?xml version="1.0" encoding="UTF-8"?>
<!DOCTYPE svg PUBLIC "-//W3C//DTD SVG 1.1//EN" "http://www.w3.org/Graphics/SVG/1.1/DTD/svg11.dtd">
<svg xmlns="http://www.w3.org/2000/svg" version="1.1" width="963px" height="610px" style="shape-rendering:geometricPrecision; text-rendering:geometricPrecision; image-rendering:optimizeQuality; fill-rule:evenodd; clip-rule:evenodd" xmlns:xlink="http://www.w3.org/1999/xlink">
<g><path style="opacity:1" fill="#ef7323" d="M 729.5,358.5 C 728.883,358.389 728.383,358.056 728,357.5C 710.887,371.645 694.054,386.145 677.5,401C 677.728,401.399 678.062,401.565 678.5,401.5C 669.819,409.512 660.819,417.179 651.5,424.5C 649.284,423.797 647.451,422.464 646,420.5C 646.083,410.503 646.083,400.503 646,390.5C 643.936,381.123 638.102,377.289 628.5,379C 623.056,380.942 620.056,384.775 619.5,390.5C 561.87,325.535 503.87,260.869 445.5,196.5C 444.697,195.577 444.53,194.577 445,193.5C 455.361,184.635 465.527,175.635 475.5,166.5C 479.105,164.528 482.105,161.861 484.5,158.5C 489.833,154.167 495.167,149.833 500.5,145.5C 508.317,156.942 516.984,167.775 526.5,178C 533.245,178.593 535.412,175.76 533,169.5C 524.177,159.517 516.343,148.851 509.5,137.5C 516.825,131.508 523.825,125.175 530.5,118.5C 533.621,116.552 536.621,114.385 539.5,112C 541.141,110.871 542.141,109.371 542.5,107.5C 543.338,107.158 543.672,106.492 543.5,105.5C 545.595,104.588 547.595,103.421 549.5,102C 554.434,97.7143 559.1,93.2143 563.5,88.5C 568.663,87.338 572.329,84.338 574.5,79.5C 576.389,78.396 578.055,77.0627 579.5,75.5C 590.389,83.717 600.389,93.0503 609.5,103.5C 614.221,106.648 617.554,105.481 619.5,100C 611.424,88.5878 601.924,78.4211 591,69.5C 590.517,68.552 590.351,67.552 590.5,66.5C 606.603,52.5703 622.603,38.4036 638.5,24C 640.369,22.3983 642.369,21.3983 644.5,21C 714.161,95.6706 784.328,170.171 855,244.5C 855.92,247.308 855.087,249.475 852.5,251C 811.856,285.864 771.189,320.864 730.5,356C 729.748,356.671 729.414,357.504 729.5,358.5 Z"/></g>
<g><path style="opacity:1" fill="#0fb0e9" d="M 430.5,74.5 C 421.128,84.3725 412.294,94.7058 404,105.5C 401.832,111.979 403.999,114.812 410.5,114C 419.314,103.685 428.314,93.5181 437.5,83.5C 438.325,82.6143 439.325,82.281 440.5,82.5C 449.573,89.5797 458.906,96.2463 468.5,102.5C 469.253,112.473 469.92,122.473 470.5,132.5C 446.444,137.68 422.444,143.18 398.5,149C 397.748,149.671 397.414,150.504 397.5,151.5C 404.234,243.84 410.901,336.173 417.5,428.5C 410.037,419.455 400.37,415.955 388.5,418C 384.347,420.011 380.347,422.177 376.5,424.5C 370.353,419.592 364.02,414.925 357.5,410.5C 357.167,409.167 356.833,409.167 356.5,410.5C 351.883,403.556 345.55,398.889 337.5,396.5C 338.239,396.631 338.906,396.464 339.5,396C 287.697,357.353 236.364,318.187 185.5,278.5C 186.822,278.67 187.989,278.337 189,277.5C 248.447,195.719 308.28,114.219 368.5,33C 368.272,32.6012 367.938,32.4346 367.5,32.5C 368.254,30.5541 369.588,29.7207 371.5,30C 391.196,44.8423 410.863,59.6756 430.5,74.5 Z"/></g>
<g><path style="opacity:0.999" fill="#0e4559" d="M 590.5,66.5 C 590.351,67.552 590.517,68.552 591,69.5C 601.924,78.4211 611.424,88.5878 619.5,100C 617.554,105.481 614.221,106.648 609.5,103.5C 600.389,93.0503 590.389,83.717 579.5,75.5C 576.703,73.205 574.036,70.705 571.5,68C 569.922,66.9055 568.255,66.0722 566.5,65.5C 568.664,70.5003 571.331,75.167 574.5,79.5C 572.329,84.338 568.663,87.338 563.5,88.5C 558.764,77.3632 552.264,67.3632 544,58.5C 545.688,65.3141 546.855,72.3141 547.5,79.5C 546.809,88.283 545.476,96.9496 543.5,105.5C 542.662,105.842 542.328,106.508 542.5,107.5C 542.141,109.371 541.141,110.871 539.5,112C 536.621,114.385 533.621,116.552 530.5,118.5C 528.297,118.935 526.297,118.935 524.5,118.5C 529.635,105.795 532.968,92.6283 534.5,79C 534.757,63.5012 527.757,52.8345 513.5,47C 501.812,47.6608 493.645,53.4941 489,64.5C 487.227,68.1521 486.06,71.9855 485.5,76C 487.326,93.3169 492.992,109.15 502.5,123.5C 502.196,124.15 501.863,124.817 501.5,125.5C 503.694,129.91 506.361,133.91 509.5,137.5C 516.343,148.851 524.177,159.517 533,169.5C 535.412,175.76 533.245,178.593 526.5,178C 516.984,167.775 508.317,156.942 500.5,145.5C 497.179,139.527 493.845,133.527 490.5,127.5C 488.513,123.527 486.513,119.527 484.5,115.5C 483.311,114.571 481.978,114.238 480.5,114.5C 480.179,119.695 480.513,124.695 481.5,129.5C 481.955,139.227 482.955,148.894 484.5,158.5C 482.105,161.861 479.105,164.528 475.5,166.5C 473.058,155.289 471.392,143.956 470.5,132.5C 469.92,122.473 469.253,112.473 468.5,102.5C 468.758,85.7791 471.758,69.6125 477.5,54C 472.229,56.0471 467.229,58.8804 462.5,62.5C 454.822,68.8478 447.488,75.5145 440.5,82.5C 439.325,82.281 438.325,82.6143 437.5,83.5C 428.314,93.5181 419.314,103.685 410.5,114C 403.999,114.812 401.832,111.979 404,105.5C 412.294,94.7058 421.128,84.3725 430.5,74.5C 446.108,57.1789 464.775,44.0122 486.5,35C 496.599,32.7667 506.766,30.9333 517,29.5C 530.315,30.6213 542.815,34.4546 554.5,41C 566.935,48.9422 578.935,57.4422 590.5,66.5 Z M 468.5,102.5 C 458.906,96.2463 449.573,89.5797 440.5,82.5C 447.488,75.5145 454.822,68.8478 462.5,62.5C 467.229,58.8804 472.229,56.0471 477.5,54C 471.758,69.6125 468.758,85.7791 468.5,102.5 Z M 563.5,88.5 C 559.1,93.2143 554.434,97.7143 549.5,102C 547.595,103.421 545.595,104.588 543.5,105.5C 545.476,96.9496 546.809,88.283 547.5,79.5C 546.855,72.3141 545.688,65.3141 544,58.5C 552.264,67.3632 558.764,77.3632 563.5,88.5 Z M 566.5,65.5 C 568.255,66.0722 569.922,66.9055 571.5,68C 574.036,70.705 576.703,73.205 579.5,75.5C 578.055,77.0627 576.389,78.396 574.5,79.5C 571.331,75.167 568.664,70.5003 566.5,65.5 Z"/></g>
<g><path style="opacity:1" fill="#0a4459" d="M 367.5,32.5 C 367.938,32.4346 368.272,32.6012 368.5,33C 308.28,114.219 248.447,195.719 189,277.5C 187.989,278.337 186.822,278.67 185.5,278.5C 179.447,261.501 173.114,244.668 166.5,228C 233.091,162.24 300.091,97.0734 367.5,32.5 Z"/></g>
<g><path style="opacity:1" fill="#20acdf" d="M 490.5,127.5 C 487.598,128.578 484.598,129.244 481.5,129.5C 480.513,124.695 480.179,119.695 480.5,114.5C 481.978,114.238 483.311,114.571 484.5,115.5C 486.513,119.527 488.513,123.527 490.5,127.5 Z"/></g>
<g><path style="opacity:1" fill="#efc82a" d="M 524.5,118.5 C 526.297,118.935 528.297,118.935 530.5,118.5C 523.825,125.175 516.825,131.508 509.5,137.5C 506.361,133.91 503.694,129.91 501.5,125.5C 501.863,124.817 502.196,124.15 502.5,123.5C 509.894,122.088 517.227,120.421 524.5,118.5 Z"/></g>
<g><path style="opacity:1" fill="#f2ca28" d="M 490.5,127.5 C 493.845,133.527 497.179,139.527 500.5,145.5C 495.167,149.833 489.833,154.167 484.5,158.5C 482.955,148.894 481.955,139.227 481.5,129.5C 484.598,129.244 487.598,128.578 490.5,127.5 Z"/></g>
<g><path style="opacity:1" fill="#f6cd26" d="M 470.5,132.5 C 471.392,143.956 473.058,155.289 475.5,166.5C 465.527,175.635 455.361,184.635 445,193.5C 444.53,194.577 444.697,195.577 445.5,196.5C 490.167,268.5 534.833,340.5 579.5,412.5C 571.197,412.322 563.53,414.489 556.5,419C 551.21,423.86 546.543,429.027 542.5,434.5C 529.199,437.394 515.865,440.227 502.5,443C 501.944,443.383 501.611,443.883 501.5,444.5C 495.366,426.686 484.033,422.019 467.5,430.5C 444.297,337.355 420.964,244.355 397.5,151.5C 397.414,150.504 397.748,149.671 398.5,149C 422.444,143.18 446.444,137.68 470.5,132.5 Z"/></g>
<g><path style="opacity:1" fill="#0b4559" d="M 397.5,151.5 C 420.964,244.355 444.297,337.355 467.5,430.5C 465.898,432.074 463.898,432.741 461.5,432.5C 461.597,423.016 456.931,418.016 447.5,417.5C 437.47,418.698 431.97,424.365 431,434.5C 430.329,435.252 429.496,435.586 428.5,435.5C 426.5,435.167 424.5,434.833 422.5,434.5C 419.451,433.776 417.785,431.776 417.5,428.5C 410.901,336.173 404.234,243.84 397.5,151.5 Z"/></g>
<g><path style="opacity:1" fill="#0e4458" d="M 445.5,196.5 C 503.87,260.869 561.87,325.535 619.5,390.5C 619.5,403.833 619.5,417.167 619.5,430.5C 618.209,430.263 617.209,430.596 616.5,431.5C 615.167,431.5 613.833,431.5 612.5,431.5C 611.504,431.586 610.671,431.252 610,430.5C 603.775,417.966 593.608,411.966 579.5,412.5C 534.833,340.5 490.167,268.5 445.5,196.5 Z"/></g>
<g><path style="opacity:0.999" fill="#f6cc25" d="M 729.5,358.5 C 732.786,368.311 735.453,378.311 737.5,388.5C 717.929,393.214 698.263,397.548 678.5,401.5C 678.062,401.565 677.728,401.399 677.5,401C 694.054,386.145 710.887,371.645 728,357.5C 728.383,358.056 728.883,358.389 729.5,358.5 Z"/></g>
<g><path style="opacity:0.968" fill="#020201" d="M 651.5,424.5 C 650.01,426.28 648.01,426.946 645.5,426.5C 645.717,434.771 645.884,443.104 646,451.5C 657.667,443.726 669.5,443.56 681.5,451C 688.392,457.285 692.225,465.118 693,474.5C 694.16,488.664 693.16,502.664 690,516.5C 683.22,523.565 675.887,524.232 668,518.5C 669.078,502.866 669.412,487.199 669,471.5C 668.826,466.139 666.993,461.472 663.5,457.5C 655.746,455.029 649.913,457.362 646,464.5C 644.81,482.155 643.81,499.822 643,517.5C 639.328,523.565 634.162,525.065 627.5,522C 623.236,517.019 621.403,511.186 622,504.5C 620.23,483.535 619.063,462.535 618.5,441.5C 618.486,437.761 617.82,434.428 616.5,431.5C 617.209,430.596 618.209,430.263 619.5,430.5C 619.5,417.167 619.5,403.833 619.5,390.5C 620.056,384.775 623.056,380.942 628.5,379C 638.102,377.289 643.936,381.123 646,390.5C 646.083,400.503 646.083,410.503 646,420.5C 647.451,422.464 649.284,423.797 651.5,424.5 Z"/></g>
<g><path style="opacity:0.972" fill="#020202" d="M 147.5,387.5 C 159.135,385.778 168.635,389.445 176,398.5C 184.294,413.83 186.627,430.164 183,447.5C 181.788,454.427 178.621,460.26 173.5,465C 165.152,468.574 159.652,466.074 157,457.5C 156.667,442.833 156.333,428.167 156,413.5C 155.897,409.253 153.897,406.586 150,405.5C 146.672,406.08 143.839,407.58 141.5,410C 134.225,421.803 131.725,434.636 134,448.5C 136.069,460.801 141.902,470.968 151.5,479C 159.969,484.323 167.802,490.49 175,497.5C 181.531,512.957 177.031,524.123 161.5,531C 145.11,536.424 131.943,532.257 122,518.5C 120.312,505.587 125.479,501.753 137.5,507C 140.167,510 142.833,513 145.5,516C 151.383,519.33 156.716,518.497 161.5,513.5C 163.463,509.271 162.297,506.271 158,504.5C 148.537,501.682 139.37,498.182 130.5,494C 115.57,482.971 108.57,468.138 109.5,449.5C 109.551,428.577 116.885,410.744 131.5,396C 136.493,392.339 141.827,389.506 147.5,387.5 Z"/></g>
<g><path style="opacity:0.963" fill="#000101" d="M 337.5,396.5 C 345.55,398.889 351.883,403.556 356.5,410.5C 356.833,410.5 357.167,410.5 357.5,410.5C 362.933,429.228 362.433,447.895 356,466.5C 344.515,483.532 329.515,487.532 311,478.5C 310.095,491.841 309.095,505.174 308,518.5C 305.859,531.219 298.692,535.386 286.5,531C 284.383,529.269 282.883,527.102 282,524.5C 278.52,496.447 277.02,468.281 277.5,440C 277.379,426.123 277.879,412.289 279,398.5C 286.637,389.215 296.137,386.715 307.5,391C 312.715,394.838 314.882,400.005 314,406.5C 319.802,398.689 327.636,395.355 337.5,396.5 Z M 327.5,407.5 C 329.288,407.215 330.955,407.548 332.5,408.5C 334.848,415.102 336.182,421.935 336.5,429C 335.804,437.181 334.971,445.348 334,453.5C 333.974,460.492 331.474,466.325 326.5,471C 321.475,472.091 316.809,471.257 312.5,468.5C 312.167,465.5 311.833,462.5 311.5,459.5C 312.072,448.837 312.572,438.17 313,427.5C 313.23,423.71 314.563,420.376 317,417.5C 320.396,413.935 323.896,410.602 327.5,407.5 Z"/></g>
<g><path style="opacity:0.971" fill="#010101" d="M 781.5,388.5 C 794.979,387.15 801.479,393.15 801,406.5C 813.8,393.102 827.134,392.435 841,404.5C 847.046,413.383 849.546,423.216 848.5,434C 848.735,443.354 847.568,452.521 845,461.5C 837.611,479.279 824.445,486.112 805.5,482C 803,480.833 800.5,479.667 798,478.5C 797.111,492.514 796.111,506.514 795,520.5C 791.779,531.593 784.612,535.093 773.5,531C 770.819,528.806 769.319,525.973 769,522.5C 764.653,481.593 763.653,440.593 766,399.5C 769.406,393.248 774.572,389.582 781.5,388.5 Z M 814.5,407.5 C 819.566,406.908 822.066,409.242 822,414.5C 824.411,432.908 822.744,450.908 817,468.5C 816.167,469.333 815.333,470.167 814.5,471C 808.684,472.409 803.517,471.242 799,467.5C 799.218,453.859 799.552,440.192 800,426.5C 802.915,418.655 807.748,412.322 814.5,407.5 Z"/></g>
<g><path style="opacity:0.952" fill="#010101" d="M 579.5,412.5 C 593.608,411.966 603.775,417.966 610,430.5C 610.671,431.252 611.504,431.586 612.5,431.5C 612.839,438.574 612.339,445.574 611,452.5C 607.15,463.009 599.983,466.342 589.5,462.5C 588.667,461.5 587.833,460.5 587,459.5C 586.746,452.487 586.746,445.487 587,438.5C 586.985,433.29 585.485,428.623 582.5,424.5C 582.423,423.25 581.756,422.417 580.5,422C 574.306,420.236 569.306,421.902 565.5,427C 566.056,427.383 566.389,427.883 566.5,428.5C 557.145,447.281 561.811,461.448 580.5,471C 590.284,474.789 599.617,479.455 608.5,485C 618.627,497.348 617.294,508.514 604.5,518.5C 585.407,528.379 566.74,527.546 548.5,516C 543.718,512.425 540.718,507.758 539.5,502C 540.799,492.862 545.799,489.529 554.5,492C 561.831,506.337 573.164,511.337 588.5,507C 593.743,502.412 593.743,497.745 588.5,493C 580.476,487.654 572.142,482.82 563.5,478.5C 553.857,472.367 547.023,464.034 543,453.5C 542.614,446.926 542.447,440.592 542.5,434.5C 546.543,429.027 551.21,423.86 556.5,419C 563.53,414.489 571.197,412.322 579.5,412.5 Z"/></g>
<g><path style="opacity:0.964" fill="#010202" d="M 417.5,428.5 C 417.785,431.776 419.451,433.776 422.5,434.5C 422.518,440.95 422.351,447.617 422,454.5C 419.776,459.723 415.942,463.223 410.5,465C 403.658,467.294 396.658,468.794 389.5,469.5C 388.332,480.504 388.499,491.504 390,502.5C 391.983,511.712 397.15,514.212 405.5,510C 407.7,507.766 409.533,505.266 411,502.5C 411.651,496.577 413.151,490.911 415.5,485.5C 419.419,483.579 422.253,484.579 424,488.5C 424.119,502.096 418.952,513.263 408.5,522C 397.744,528.624 387.911,527.457 379,518.5C 369.531,504.363 365.031,488.696 365.5,471.5C 365.549,461.333 366.716,451.333 369,441.5C 370.427,435.317 372.927,429.65 376.5,424.5C 380.347,422.177 384.347,420.011 388.5,418C 400.37,415.955 410.037,419.455 417.5,428.5 Z M 393.5,437.5 C 396.857,440.019 400.357,442.352 404,444.5C 406.045,442.625 407.878,440.625 409.5,438.5C 413.322,449.492 409.322,454.825 397.5,454.5C 393.429,455.407 391.096,453.907 390.5,450C 390.947,445.574 391.947,441.407 393.5,437.5 Z"/></g>
<g><path style="opacity:0.975" fill="#010101" d="M 467.5,430.5 C 484.033,422.019 495.366,426.686 501.5,444.5C 501.665,448.182 501.499,451.848 501,455.5C 498.034,460.044 494.034,461.378 489,459.5C 487.751,455.598 486.918,451.598 486.5,447.5C 483.915,438.209 478.582,436.209 470.5,441.5C 468.1,443.296 466.433,445.63 465.5,448.5C 463.13,469.186 460.296,489.853 457,510.5C 455.355,518.577 450.521,521.411 442.5,519C 438.23,517.73 435.73,514.896 435,510.5C 432.437,485.36 430.27,460.36 428.5,435.5C 429.496,435.586 430.329,435.252 431,434.5C 431.97,424.365 437.47,418.698 447.5,417.5C 456.931,418.016 461.597,423.016 461.5,432.5C 463.898,432.741 465.898,432.074 467.5,430.5 Z"/></g>
<g><path style="opacity:1" fill="#dcb41b" d="M 582.5,424.5 C 577.218,425.957 571.884,427.291 566.5,428.5C 566.389,427.883 566.056,427.383 565.5,427C 569.306,421.902 574.306,420.236 580.5,422C 581.756,422.417 582.423,423.25 582.5,424.5 Z"/></g>
<g><path style="opacity:1" fill="#0ea9e0" d="M 409.5,438.5 C 407.878,440.625 406.045,442.625 404,444.5C 400.357,442.352 396.857,440.019 393.5,437.5C 393.802,430.368 397.469,427.535 404.5,429C 408.19,431.169 409.857,434.336 409.5,438.5 Z"/></g>
<g><path style="opacity:0.949" fill="#010101" d="M 718.5,428.5 C 740.913,426.293 754.08,436.293 758,458.5C 760.833,477.065 755.666,492.899 742.5,506C 722.423,516.552 708.59,511.052 701,489.5C 696.374,475.16 696.374,460.827 701,446.5C 704.353,437.982 710.186,431.982 718.5,428.5 Z M 722.5,442.5 C 727.273,443.152 730.44,445.818 732,450.5C 733.975,462.158 733.975,473.825 732,485.5C 730.864,489.243 729.53,492.91 728,496.5C 725.966,499.859 723.632,500.192 721,497.5C 716.856,488.838 715.022,479.671 715.5,470C 715.407,462.726 716.24,455.559 718,448.5C 719.277,446.253 720.777,444.253 722.5,442.5 Z"/></g>
<g><path style="opacity:1" fill="#edc625" d="M 486.5,447.5 C 482.476,448.038 478.476,448.705 474.5,449.5C 473.504,449.586 472.671,449.252 472,448.5C 471.338,446.187 470.838,443.854 470.5,441.5C 478.582,436.209 483.915,438.209 486.5,447.5 Z"/></g>
<g><path style="opacity:0.965" fill="#010101" d="M 253.5,439.5 C 261.309,438.484 266.809,441.484 270,448.5C 272.578,470.674 271.578,492.674 267,514.5C 262.07,522.915 254.903,526.082 245.5,524C 243.47,522.104 241.803,519.937 240.5,517.5C 212.144,528.906 195.31,519.572 190,489.5C 188.441,477.149 188.441,464.816 190,452.5C 192.986,441.61 199.819,438.11 210.5,442C 216.962,445.088 219.629,450.255 218.5,457.5C 217.786,467.83 217.119,478.164 216.5,488.5C 216.521,493.223 217.021,497.889 218,502.5C 221.608,509.074 227.108,511.241 234.5,509C 236.09,507.954 237.59,506.787 239,505.5C 239.772,486.46 241.106,467.46 243,448.5C 245.423,444.211 248.923,441.211 253.5,439.5 Z"/></g>
<g><path style="opacity:1" fill="#29474d" d="M 470.5,441.5 C 470.838,443.854 471.338,446.187 472,448.5C 472.671,449.252 473.504,449.586 474.5,449.5C 473.903,450.139 473.07,450.472 472,450.5C 469.774,449.967 467.607,449.3 465.5,448.5C 466.433,445.63 468.1,443.296 470.5,441.5 Z"/></g>
</svg>
