<?xml version="1.0" encoding="UTF-8"?>
<!DOCTYPE svg PUBLIC "-//W3C//DTD SVG 1.1//EN" "http://www.w3.org/Graphics/SVG/1.1/DTD/svg11.dtd">
<svg xmlns="http://www.w3.org/2000/svg" version="1.1" width="963px" height="610px" style="shape-rendering:geometricPrecision; text-rendering:geometricPrecision; image-rendering:optimizeQuality; fill-rule:evenodd; clip-rule:evenodd" xmlns:xlink="http://www.w3.org/1999/xlink">
<g><path style="opacity:0" fill="#fefefe" d="M -0.5,-0.5 C 320.5,-0.5 641.5,-0.5 962.5,-0.5C 962.5,202.833 962.5,406.167 962.5,609.5C 641.5,609.5 320.5,609.5 -0.5,609.5C -0.5,406.167 -0.5,202.833 -0.5,-0.5 Z"/></g>
<g><path style="opacity:1" fill="#ef7423" d="M 728.5,357.5 C 710.9,371.467 693.9,386.134 677.5,401.5C 668.148,409.19 658.814,416.857 649.5,424.5C 648.542,423.038 647.376,421.705 646,420.5C 646.083,410.503 646.083,400.503 646,390.5C 643.936,381.123 638.102,377.289 628.5,379C 623.056,380.942 620.056,384.775 619.5,390.5C 561.87,325.535 503.87,260.869 445.5,196.5C 444.697,195.577 444.53,194.577 445,193.5C 455.361,184.635 465.527,175.635 475.5,166.5C 479.105,164.528 482.105,161.861 484.5,158.5C 489.833,154.167 495.167,149.833 500.5,145.5C 508.317,156.942 516.984,167.775 526.5,178C 533.245,178.593 535.412,175.76 533,169.5C 524.177,159.517 516.343,148.851 509.5,137.5C 516.825,131.508 523.825,125.175 530.5,118.5C 534.146,116.183 537.48,113.516 540.5,110.5C 549.062,103.392 557.395,96.0589 565.5,88.5C 568.784,86.883 571.451,84.5497 573.5,81.5C 576.432,80.2003 578.766,78.2003 580.5,75.5C 590.78,84.112 600.447,93.4453 609.5,103.5C 614.221,106.648 617.554,105.481 619.5,100C 619.138,98.7753 618.638,97.6086 618,96.5C 608.967,86.3013 599.467,76.6346 589.5,67.5C 607.236,53.2739 624.569,38.4406 641.5,23C 642.5,22.3333 643.5,22.3333 644.5,23C 715.016,97.3489 785.35,171.849 855.5,246.5C 812.851,283.15 770.518,320.15 728.5,357.5 Z"/></g>
<g><path style="opacity:1" fill="#10b0e9" d="M 429.5,75.5 C 420.46,85.0399 411.96,95.0399 404,105.5C 401.832,111.979 403.999,114.812 410.5,114C 420.032,102.972 429.699,92.139 439.5,81.5C 449.144,89.7957 459.144,97.7957 469.5,105.5C 469.358,114.524 469.692,123.524 470.5,132.5C 446.444,137.68 422.444,143.18 398.5,149C 397.748,149.671 397.414,150.504 397.5,151.5C 404.234,243.84 410.901,336.173 417.5,428.5C 408.237,418.008 396.904,415.175 383.5,420C 381.195,421.626 379.195,423.46 377.5,425.5C 377.489,423.983 376.823,422.816 375.5,422C 367.936,416.256 360.27,410.756 352.5,405.5C 349.786,402.785 346.786,400.451 343.5,398.5C 291.167,358.5 238.833,318.5 186.5,278.5C 187.496,278.586 188.329,278.252 189,277.5C 248.356,195.99 307.856,114.656 367.5,33.5C 368.582,30.5346 370.249,30.0346 372.5,32C 391.685,46.3635 410.685,60.8635 429.5,75.5 Z"/></g>
<g><path style="opacity:1" fill="#11465a" d="M 589.5,67.5 C 599.467,76.6346 608.967,86.3013 618,96.5C 618.638,97.6086 619.138,98.7753 619.5,100C 617.554,105.481 614.221,106.648 609.5,103.5C 600.447,93.4453 590.78,84.112 580.5,75.5C 574.714,69.3489 568.214,64.0155 561,59.5C 565.364,66.5437 569.531,73.877 573.5,81.5C 571.451,84.5497 568.784,86.883 565.5,88.5C 559.489,75.6494 551.323,64.316 541,54.5C 542.259,58.3913 543.592,62.3913 545,66.5C 546.598,81.5077 545.098,96.1744 540.5,110.5C 537.48,113.516 534.146,116.183 530.5,118.5C 528.708,118.366 527.042,118.699 525.5,119.5C 532.165,104.176 535.332,88.1764 535,71.5C 532.093,55.9163 522.926,47.4163 507.5,46C 494.488,51.5284 486.821,61.3618 484.5,75.5C 486.405,93.2184 492.072,109.552 501.5,124.5C 503.418,129.343 506.084,133.677 509.5,137.5C 516.343,148.851 524.177,159.517 533,169.5C 535.412,175.76 533.245,178.593 526.5,178C 516.984,167.775 508.317,156.942 500.5,145.5C 497.179,139.527 493.845,133.527 490.5,127.5C 488.738,123.638 486.738,119.972 484.5,116.5C 483.623,113.699 482.456,111.032 481,108.5C 480.505,110.473 480.338,112.473 480.5,114.5C 480.179,119.695 480.513,124.695 481.5,129.5C 481.955,139.227 482.955,148.894 484.5,158.5C 482.105,161.861 479.105,164.528 475.5,166.5C 473.058,155.289 471.392,143.956 470.5,132.5C 469.692,123.524 469.358,114.524 469.5,105.5C 469.289,87.0909 472.622,69.4242 479.5,52.5C 479.167,52.1667 478.833,51.8333 478.5,51.5C 464.208,59.8137 451.208,69.8137 439.5,81.5C 429.699,92.139 420.032,102.972 410.5,114C 403.999,114.812 401.832,111.979 404,105.5C 411.96,95.0399 420.46,85.0399 429.5,75.5C 441.809,63.6897 455.143,53.1897 469.5,44C 504.663,24.9886 537.996,27.6553 569.5,52C 576.042,57.3818 582.709,62.5485 589.5,67.5 Z"/></g>
<g><path style="opacity:1" fill="#0b455a" d="M 367.5,33.5 C 307.856,114.656 248.356,195.99 189,277.5C 188.329,278.252 187.496,278.586 186.5,278.5C 181.577,263.314 176.077,248.314 170,233.5C 168.85,231.246 168.516,228.913 169,226.5C 234.731,161.601 300.898,97.2674 367.5,33.5 Z"/></g>
<g><path style="opacity:1" fill="#fdfdfd" d="M 525.5,119.5 C 517.499,121.167 509.499,122.834 501.5,124.5C 492.072,109.552 486.405,93.2184 484.5,75.5C 486.821,61.3618 494.488,51.5284 507.5,46C 522.926,47.4163 532.093,55.9163 535,71.5C 535.332,88.1764 532.165,104.176 525.5,119.5 Z"/></g>
<g><path style="opacity:1" fill="#fbfcfd" d="M 469.5,105.5 C 459.144,97.7957 449.144,89.7957 439.5,81.5C 451.208,69.8137 464.208,59.8137 478.5,51.5C 478.833,51.8333 479.167,52.1667 479.5,52.5C 472.622,69.4242 469.289,87.0909 469.5,105.5 Z"/></g>
<g><path style="opacity:1" fill="#f7f8f8" d="M 565.5,88.5 C 557.395,96.0589 549.062,103.392 540.5,110.5C 545.098,96.1744 546.598,81.5077 545,66.5C 543.592,62.3913 542.259,58.3913 541,54.5C 551.323,64.316 559.489,75.6494 565.5,88.5 Z"/></g>
<g><path style="opacity:1" fill="#f1f3f3" d="M 580.5,75.5 C 578.766,78.2003 576.432,80.2003 573.5,81.5C 569.531,73.877 565.364,66.5437 561,59.5C 568.214,64.0155 574.714,69.3489 580.5,75.5 Z"/></g>
<g><path style="opacity:1" fill="#eaf1f4" d="M 484.5,116.5 C 483.395,115.4 482.062,114.733 480.5,114.5C 480.338,112.473 480.505,110.473 481,108.5C 482.456,111.032 483.623,113.699 484.5,116.5 Z"/></g>
<g><path style="opacity:1" fill="#20ade1" d="M 480.5,114.5 C 482.062,114.733 483.395,115.4 484.5,116.5C 486.738,119.972 488.738,123.638 490.5,127.5C 487.598,128.578 484.598,129.244 481.5,129.5C 480.513,124.695 480.179,119.695 480.5,114.5 Z"/></g>
<g><path style="opacity:1" fill="#f3cb2e" d="M 530.5,118.5 C 523.825,125.175 516.825,131.508 509.5,137.5C 506.084,133.677 503.418,129.343 501.5,124.5C 509.499,122.834 517.499,121.167 525.5,119.5C 527.042,118.699 528.708,118.366 530.5,118.5 Z"/></g>
<g><path style="opacity:1" fill="#f2ca28" d="M 490.5,127.5 C 493.845,133.527 497.179,139.527 500.5,145.5C 495.167,149.833 489.833,154.167 484.5,158.5C 482.955,148.894 481.955,139.227 481.5,129.5C 484.598,129.244 487.598,128.578 490.5,127.5 Z"/></g>
<g><path style="opacity:1" fill="#f6cd26" d="M 470.5,132.5 C 471.392,143.956 473.058,155.289 475.5,166.5C 465.527,175.635 455.361,184.635 445,193.5C 444.53,194.577 444.697,195.577 445.5,196.5C 490.167,268.5 534.833,340.5 579.5,412.5C 564.156,412.5 552.823,419.167 545.5,432.5C 530.529,435.94 515.529,439.273 500.5,442.5C 497.068,430.879 489.401,425.379 477.5,426C 473.996,427.254 470.663,428.754 467.5,430.5C 444.297,337.355 420.964,244.355 397.5,151.5C 397.414,150.504 397.748,149.671 398.5,149C 422.444,143.18 446.444,137.68 470.5,132.5 Z"/></g>
<g><path style="opacity:1" fill="#0c4559" d="M 397.5,151.5 C 420.964,244.355 444.297,337.355 467.5,430.5C 465.898,432.074 463.898,432.741 461.5,432.5C 461.04,420.879 455.04,416.045 443.5,418C 435.411,421.007 431.411,426.84 431.5,435.5C 427.5,434.5 423.5,433.5 419.5,432.5C 418.655,431.329 417.989,429.995 417.5,428.5C 410.901,336.173 404.234,243.84 397.5,151.5 Z"/></g>
<g><path style="opacity:1" fill="#0e4458" d="M 445.5,196.5 C 503.87,260.869 561.87,325.535 619.5,390.5C 619.5,403.833 619.5,417.167 619.5,430.5C 616.5,430.5 613.5,430.5 610.5,430.5C 604.034,418.093 593.7,412.093 579.5,412.5C 534.833,340.5 490.167,268.5 445.5,196.5 Z"/></g>
<g><path style="opacity:1" fill="#f7ce2b" d="M 728.5,357.5 C 731.47,366.709 734.137,376.042 736.5,385.5C 736.392,386.442 736.059,387.275 735.5,388C 716.074,392.19 696.741,396.69 677.5,401.5C 693.9,386.134 710.9,371.467 728.5,357.5 Z"/></g>
<g><path style="opacity:1" fill="#040303" d="M 649.5,424.5 C 648.432,425.434 647.099,425.768 645.5,425.5C 644.342,434.991 644.175,444.658 645,454.5C 645.717,453.956 646.217,453.289 646.5,452.5C 657.038,445.135 668.038,444.635 679.5,451C 689.2,459.584 693.533,470.417 692.5,483.5C 692.104,494.254 690.937,504.921 689,515.5C 682.91,522.562 676.243,523.229 669,517.5C 670.29,500.879 670.623,484.212 670,467.5C 668.038,456.602 661.871,453.102 651.5,457C 649,458.833 646.833,461 645,463.5C 643.127,481.445 642.127,499.445 642,517.5C 638.634,522.609 634.134,523.776 628.5,521C 626.951,519.786 625.785,518.286 625,516.5C 623.674,508.875 622.674,501.209 622,493.5C 621.179,472.496 620.346,451.496 619.5,430.5C 619.5,417.167 619.5,403.833 619.5,390.5C 620.056,384.775 623.056,380.942 628.5,379C 638.102,377.289 643.936,381.123 646,390.5C 646.083,400.503 646.083,410.503 646,420.5C 647.376,421.705 648.542,423.038 649.5,424.5 Z"/></g>
<g><path style="opacity:1" fill="#040404" d="M 147.5,388.5 C 165.964,387.784 177.464,396.451 182,414.5C 185.14,430.06 183.473,445.06 177,459.5C 166.906,469.1 160.572,467.1 158,453.5C 157.952,438.432 157.285,423.432 156,408.5C 153.947,404.708 150.781,403.542 146.5,405C 139.11,410.264 134.61,417.431 133,426.5C 129.217,447.059 134.717,464.559 149.5,479C 156.167,483.667 162.833,488.333 169.5,493C 177.821,502.171 178.654,512.005 172,522.5C 163.041,530.7 152.541,533.533 140.5,531C 131.934,529.321 126.1,524.487 123,516.5C 122.238,505.786 126.738,502.953 136.5,508C 139.538,510.703 142.205,513.703 144.5,517C 151.566,520.849 157.733,519.683 163,513.5C 164.221,508.03 162.054,504.53 156.5,503C 144.105,500.136 133.105,494.636 123.5,486.5C 114.739,475.822 110.405,463.489 110.5,449.5C 110.706,428.359 118.373,410.525 133.5,396C 137.886,392.828 142.552,390.328 147.5,388.5 Z"/></g>
<g><path style="opacity:1" fill="#040404" d="M 343.5,398.5 C 346.786,400.451 349.786,402.785 352.5,405.5C 354.824,408.138 356.657,411.138 358,414.5C 362.162,432.582 360.829,450.249 354,467.5C 342.06,483.359 327.227,486.692 309.5,477.5C 308.732,488.801 308.232,500.134 308,511.5C 307.319,517.079 305.819,522.412 303.5,527.5C 298.361,531.646 292.695,532.48 286.5,530C 285.299,529.097 284.465,527.931 284,526.5C 280.893,510.319 279.226,493.985 279,477.5C 278.028,451.438 278.361,425.438 280,399.5C 285.743,391.224 293.576,388.39 303.5,391C 307.499,391.668 310.332,393.835 312,397.5C 312.333,401.167 312.667,404.833 313,408.5C 321.013,398.662 331.18,395.329 343.5,398.5 Z"/></g>
<g><path style="opacity:1" fill="#020202" d="M 777.5,390.5 C 783.762,389.872 789.762,390.705 795.5,393C 797.049,394.214 798.215,395.714 799,397.5C 799.333,401.167 799.667,404.833 800,408.5C 812.451,395.034 825.785,394.034 840,405.5C 843.481,409.931 845.814,414.931 847,420.5C 848.047,432.938 847.381,445.271 845,457.5C 839.944,475.447 828.111,483.614 809.5,482C 805.135,480.479 800.802,478.979 796.5,477.5C 795.84,488.82 795.34,500.153 795,511.5C 794.896,517.145 793.563,522.478 791,527.5C 786.439,531.123 781.272,532.29 775.5,531C 773.274,529.773 771.774,527.939 771,525.5C 769.011,514.578 767.678,503.578 767,492.5C 766.333,461.5 766.333,430.5 767,399.5C 769.468,395.199 772.968,392.199 777.5,390.5 Z"/></g>
<g><path style="opacity:1" fill="#fafafa" d="M 327.5,406.5 C 331.182,405.725 333.682,407.059 335,410.5C 339.105,430.179 337.772,449.512 331,468.5C 327.257,472.259 322.757,473.426 317.5,472C 314.966,471.484 312.8,470.317 311,468.5C 311.032,453.506 311.365,438.506 312,423.5C 315.812,416.499 320.979,410.833 327.5,406.5 Z"/></g>
<g><path style="opacity:1" fill="#fafafa" d="M 814.5,406.5 C 817.044,406.104 819.211,406.771 821,408.5C 822.75,411.246 823.75,414.246 824,417.5C 824.93,430.915 824.263,444.249 822,457.5C 820.843,462.142 819.01,466.475 816.5,470.5C 809.919,473.528 803.752,472.861 798,468.5C 798.137,453.846 798.47,439.18 799,424.5C 802.939,417.398 808.106,411.398 814.5,406.5 Z"/></g>
<g><path style="opacity:1" fill="#040404" d="M 579.5,412.5 C 593.7,412.093 604.034,418.093 610.5,430.5C 613.093,441.144 611.426,450.977 605.5,460C 598.994,465.12 593.161,464.62 588,458.5C 587.721,453.003 587.887,447.503 588.5,442C 588.799,435.696 587.299,429.863 584,424.5C 583.329,423.748 582.496,423.414 581.5,423.5C 575.107,420.001 569.774,421.335 565.5,427.5C 562.385,432.803 561.051,438.637 561.5,445C 560.962,450.567 562.129,455.734 565,460.5C 569.214,464.382 573.714,467.882 578.5,471C 590.358,475.508 601.192,481.675 611,489.5C 616.329,500.225 614.163,509.392 604.5,517C 601.205,519.434 597.538,521.101 593.5,522C 573.741,527.625 556.908,523.125 543,508.5C 540.418,502.713 541.251,497.546 545.5,493C 548.167,491 550.833,491 553.5,493C 560.31,505.236 570.643,510.903 584.5,510C 595.182,505.225 596.182,498.892 587.5,491C 578.335,485.919 569.335,480.585 560.5,475C 545.261,464.45 540.261,450.283 545.5,432.5C 552.823,419.167 564.156,412.5 579.5,412.5 Z"/></g>
<g><path style="opacity:1" fill="#040505" d="M 417.5,428.5 C 417.989,429.995 418.655,431.329 419.5,432.5C 422.33,440.886 422.164,449.219 419,457.5C 417.127,459.709 414.96,461.542 412.5,463C 404.72,465.683 396.72,467.35 388.5,468C 387.25,479.788 387.417,491.622 389,503.5C 390.247,511.426 394.747,514.593 402.5,513C 405.102,512.117 407.269,510.617 409,508.5C 412.291,501.175 414.791,493.675 416.5,486C 419.804,484.958 421.971,486.125 423,489.5C 422.764,501.535 418.264,511.702 409.5,520C 394.798,528.536 383.298,525.37 375,510.5C 364.823,485.928 363.823,460.928 372,435.5C 373.592,431.979 375.425,428.646 377.5,425.5C 379.195,423.46 381.195,421.626 383.5,420C 396.904,415.175 408.237,418.008 417.5,428.5 Z"/></g>
<g><path style="opacity:1" fill="#020202" d="M 467.5,430.5 C 470.663,428.754 473.996,427.254 477.5,426C 489.401,425.379 497.068,430.879 500.5,442.5C 502.138,447.393 501.638,452.06 499,456.5C 496.346,459.058 493.346,459.725 490,458.5C 489.158,454.282 487.992,450.282 486.5,446.5C 483.291,438.075 477.958,436.409 470.5,441.5C 468.367,443.091 466.701,445.091 465.5,447.5C 464.442,448.6 463.608,449.934 463,451.5C 462.234,473.164 459.234,494.498 454,515.5C 450.662,518.318 446.829,519.151 442.5,518C 440,516.833 438.167,515 437,512.5C 435.907,506.516 434.907,500.516 434,494.5C 432.785,474.848 431.951,455.181 431.5,435.5C 431.411,426.84 435.411,421.007 443.5,418C 455.04,416.045 461.04,420.879 461.5,432.5C 463.898,432.741 465.898,432.074 467.5,430.5 Z"/></g>
<g><path style="opacity:1" fill="#eec831" d="M 581.5,423.5 C 576.342,425.44 571.009,426.773 565.5,427.5C 569.774,421.335 575.107,420.001 581.5,423.5 Z"/></g>
<g><path style="opacity:1" fill="#1fb0e7" d="M 410.5,436.5 C 408.342,438.793 406.176,441.126 404,443.5C 400.021,441.018 396.188,438.351 392.5,435.5C 398.85,425.971 404.85,426.304 410.5,436.5 Z"/></g>
<g><path style="opacity:1" fill="#050505" d="M 718.5,429.5 C 740.294,427.157 753.127,436.823 757,458.5C 759.037,475.677 754.537,490.844 743.5,504C 725.1,515.527 711.6,511.36 703,491.5C 697.486,476.931 697.153,462.264 702,447.5C 705.298,439.373 710.798,433.373 718.5,429.5 Z"/></g>
<g><path style="opacity:1" fill="#f5f6f6" d="M 392.5,435.5 C 396.188,438.351 400.021,441.018 404,443.5C 406.176,441.126 408.342,438.793 410.5,436.5C 415.191,449.314 410.691,455.647 397,455.5C 394.329,455.726 391.996,455.059 390,453.5C 389.06,447.226 389.893,441.226 392.5,435.5 Z"/></g>
<g><path style="opacity:1" fill="#f1ca2b" d="M 486.5,446.5 C 481.959,447.404 477.459,448.404 473,449.5C 472.617,448.944 472.117,448.611 471.5,448.5C 471.326,446.139 470.993,443.806 470.5,441.5C 477.958,436.409 483.291,438.075 486.5,446.5 Z"/></g>
<g><path style="opacity:1" fill="#6c6c6c" d="M 645.5,425.5 C 645.173,434.682 645.507,443.682 646.5,452.5C 646.217,453.289 645.717,453.956 645,454.5C 644.175,444.658 644.342,434.991 645.5,425.5 Z"/></g>
<g><path style="opacity:1" fill="#050505" d="M 253.5,440.5 C 262.491,439.742 267.991,443.742 270,452.5C 271.122,471.945 270.122,491.279 267,510.5C 263.708,520.399 256.874,524.566 246.5,523C 244.369,520.552 242.369,518.052 240.5,515.5C 212.719,527.688 196.219,518.688 191,488.5C 190.333,477.167 190.333,465.833 191,454.5C 193.717,442.5 200.884,439 212.5,444C 216.037,446.408 217.704,449.741 217.5,454C 216.402,470.153 216.235,486.32 217,502.5C 220.429,510.1 226.262,512.6 234.5,510C 236.587,509.208 238.421,508.041 240,506.5C 240.611,487.117 241.944,467.784 244,448.5C 246.362,444.755 249.528,442.089 253.5,440.5 Z"/></g>
<g><path style="opacity:1" fill="#f9f9f9" d="M 721.5,441.5 C 728.363,442.527 732.53,446.527 734,453.5C 736.672,469.131 734.672,484.131 728,498.5C 724.4,501.354 721.4,500.687 719,496.5C 716.647,491.774 715.314,486.774 715,481.5C 714.333,472.833 714.333,464.167 715,455.5C 715.841,450.155 718.008,445.488 721.5,441.5 Z"/></g>
<g><path style="opacity:1" fill="#1d4b5c" d="M 470.5,441.5 C 470.993,443.806 471.326,446.139 471.5,448.5C 471.565,448.938 471.399,449.272 471,449.5C 469.275,448.536 467.441,447.869 465.5,447.5C 466.701,445.091 468.367,443.091 470.5,441.5 Z"/></g>
</svg>
